# Blender v2.80 (sub 72) OBJ File: 'cube.blend'
# www.blender.org
o Cube
v 1.000000 1.000000 1.000000
v 1.000000 -1.000000 1.000000
v -1.000000 1.000000 1.000000
v -1.000000 -1.000000 1.000000
v 1.000000 1.000000 -1.000000
v 1.000000 -1.000000 -1.000000
v -1.000000 1.000000 -1.000000
v -1.000000 -1.000000 -1.000000
vt 0.500000 0.999913
vt 0.250043 0.749957
vt 0.500000 0.749957
vt 0.000087 0.500000
vt 0.250043 0.500000
vt 0.250043 0.000087
vt 0.500000 0.250043
vt 0.250043 0.250043
vt 0.500000 0.500000
vt 0.749957 0.749957
vt 0.749957 0.500000
vt 0.250043 0.999913
vt 0.000087 0.749957
vt 0.500000 0.000087
vn 0.0000 1.0000 0.0000
vn -1.0000 0.0000 0.0000
vn 0.0000 0.0000 -1.0000
vn 0.0000 -1.0000 0.0000
vn 0.0000 0.0000 1.0000
vn 1.0000 0.0000 0.0000
s off
f 5/1/1 3/2/1 1/3/1
f 3/2/2 8/4/2 4/5/2
f 7/6/3 6/7/3 8/8/3
f 2/9/4 8/8/4 6/7/4
f 1/3/5 4/5/5 2/9/5
f 5/10/6 2/9/6 6/11/6
f 5/1/1 7/12/1 3/2/1
f 3/2/2 7/13/2 8/4/2
f 7/6/3 5/14/3 6/7/3
f 2/9/4 4/5/4 8/8/4
f 1/3/5 3/2/5 4/5/5
f 5/10/6 1/3/6 2/9/6
